<svg version="1.1" xmlns="http://www.w3.org/2000/svg" xmlns:xlink="http://www.w3.org/1999/xlink" role="img" width="544" height="90" viewbox="0 0 544 90"><title>NetworkSlimming</title><desc>Generated by logo.svg, https://github.com/bubkoo/logo.svg</desc><path fill="#2b68a7" d="M-0.28 70.35L0.30 67.66L1.13 67.66Q3.24 67.66 4.94 66.86Q6.63 66.06 7.27 63.06L13.93 31.70Q14.18 30.67 14.18 29.90Q14.18 28.24 12.90 27.79Q11.62 27.34 9.58 27.34L8.74 27.34L9.32 24.66L20.97 24.66L36.46 59.98L42.47 31.70Q42.73 30.67 42.73 29.90Q42.73 28.24 41.45 27.79Q40.17 27.34 38.12 27.34L37.29 27.34L37.86 24.66L53.93 24.66L53.35 27.34L52.52 27.34Q50.34 27.34 48.65 28.14Q46.95 28.94 46.31 31.95L38.18 70.35L34.02 70.35L17.58 32.85L11.11 63.31Q10.86 64.34 10.86 65.10Q10.86 66.77 12.14 67.22Q13.42 67.66 15.46 67.66L16.30 67.66L15.72 70.35L-0.28 70.35ZM65.06 70.99Q61.61 70.99 58.79 69.52Q55.98 68.05 54.28 65.14Q52.58 62.22 52.58 57.74Q52.58 54.22 53.80 50.32Q55.02 46.42 57.45 43.02Q59.88 39.63 63.43 37.52Q66.98 35.41 71.66 35.41Q75.69 35.41 77.93 37.36Q80.17 39.31 80.17 42.77Q80.17 46.16 77.77 49.07Q75.37 51.98 71.18 53.78Q66.98 55.57 61.61 55.57L59.37 55.57Q59.30 56.27 59.27 56.94Q59.24 57.62 59.24 58.26Q59.24 62.42 61.03 64.69Q62.82 66.96 66.28 66.96Q69.35 66.96 71.75 65.49Q74.15 64.02 75.50 62.35Q76.14 62.80 76.14 63.95Q76.14 65.36 74.95 66.99Q73.77 68.62 71.34 69.81Q68.90 70.99 65.06 70.99M59.94 52.62L60.58 52.62Q64.30 52.62 67.24 51.38Q70.18 50.13 71.88 47.92Q73.58 45.71 73.58 42.77Q73.58 38.48 69.86 38.48Q68.01 38.48 66.44 39.73Q64.87 40.98 63.59 43.06Q62.31 45.14 61.38 47.63Q60.46 50.13 59.94 52.62ZM93.10 70.99Q86.12 70.99 86.12 63.50Q86.12 62.35 86.31 60.85Q86.50 59.34 86.76 58.13L90.66 39.70L85.80 39.70L86.38 37.14Q89.13 37.14 91.69 35.12Q94.25 33.10 96.17 28.18L99.11 28.18L97.45 36.05L105.19 36.05L104.42 39.70L96.68 39.70L92.78 57.94Q92.46 59.54 92.23 60.98Q92.01 62.42 92.01 63.44Q92.01 65.30 92.90 66.13Q93.80 66.96 95.40 66.96Q96.74 66.96 98.15 66.54Q99.56 66.13 100.65 65.55L101.74 67.92Q99.82 69.26 97.64 70.13Q95.46 70.99 93.10 70.99ZM133.67 70.99Q133.67 68.05 133.54 64.11Q133.42 60.18 133.22 56.08Q133.03 51.98 132.90 48.59Q132.78 45.20 132.71 43.28Q132.39 44.18 131.40 46.26Q130.41 48.34 129.06 51.09Q127.72 53.84 126.18 56.82Q124.65 59.79 123.24 62.54Q121.83 65.30 120.74 67.31Q119.66 69.33 119.21 70.16L112.62 70.93L112.17 43.34Q112.10 40.40 110.95 39.57Q109.80 38.74 107.94 38.74L107.30 38.74L108.20 36.05L117.80 36.05Q117.86 40.53 117.93 45.65Q117.99 50.77 118.02 55.82Q118.06 60.88 118.06 65.23L118.31 65.23Q119.85 62.61 121.67 59.15Q123.50 55.70 125.45 51.86Q127.40 48.02 129.22 44.08Q131.05 40.14 132.52 36.62L137.83 36.37Q138.02 38.29 138.22 41.33Q138.41 44.37 138.57 47.92Q138.73 51.47 138.86 54.93Q138.98 58.38 139.08 61.23Q139.18 64.08 139.18 65.68L139.62 65.68Q141.80 63.06 143.91 59.98Q146.02 56.91 147.78 53.81Q149.54 50.70 150.60 47.92Q151.66 45.14 151.66 43.02Q151.66 41.42 150.92 40.53Q150.18 39.63 148.90 39.18Q149.10 37.65 150.09 36.53Q151.08 35.41 152.68 35.41Q154.28 35.41 155.18 36.59Q156.07 37.78 156.07 40.21Q156.07 43.98 154.06 48.53Q152.04 53.07 148.39 58.45Q144.74 63.82 140.01 70.29L133.67 70.99ZM172.39 70.99Q166.95 70.99 163.53 67.70Q160.10 64.40 160.10 57.74Q160.10 54.22 161.26 50.32Q162.41 46.42 164.78 43.02Q167.14 39.63 170.73 37.52Q174.31 35.41 179.18 35.41Q182.57 35.41 185.32 36.75Q188.07 38.10 189.70 41.04Q191.34 43.98 191.34 48.66Q191.34 51.41 190.63 54.45Q189.93 57.49 188.46 60.43Q186.98 63.38 184.74 65.74Q182.50 68.11 179.40 69.55Q176.30 70.99 172.39 70.99M173.10 67.73Q176.23 67.73 178.44 65.71Q180.65 63.70 182.02 60.53Q183.40 57.36 184.04 53.90Q184.68 50.45 184.68 47.57Q184.68 42.77 183.02 40.72Q181.35 38.67 178.41 38.67Q175.91 38.67 173.99 40.02Q172.07 41.36 170.70 43.57Q169.32 45.78 168.46 48.46Q167.59 51.15 167.18 53.87Q166.76 56.59 166.76 58.90Q166.76 63.76 168.49 65.74Q170.22 67.73 173.10 67.73ZM196.90 70.35L202.28 44.62Q202.47 43.73 202.57 42.90Q202.66 42.06 202.66 41.74Q202.66 39.82 201.00 39.28Q199.34 38.74 197.54 38.74L197.03 38.74L197.61 36.05L208.94 36.05L207.59 45.26L208.23 45.26Q209.45 42.64 210.86 40.40Q212.26 38.16 214.25 36.78Q216.23 35.41 219.11 35.41Q221.80 35.41 223.08 36.66Q224.36 37.90 224.36 39.82Q224.36 42.06 223.11 43.38Q221.86 44.69 219.05 44.69Q219.05 42.38 218.54 41.01Q218.02 39.63 216.49 39.63Q214.82 39.63 213.13 41.36Q211.43 43.09 209.93 45.94Q208.42 48.78 207.21 52.14Q205.99 55.50 205.29 58.70L202.86 70.35L196.90 70.35ZM257 70.80Q253.48 70.74 251.30 70.16Q249.13 69.58 247.78 68.18Q246.44 66.77 245.42 64.21L241.26 53.97L235.43 57.68L232.81 70.35L226.86 70.35L235.18 30.80Q235.43 29.52 235.59 28.62Q235.75 27.73 235.75 27.41Q235.75 25.49 234.44 24.94Q233.13 24.40 231.27 24.40L230.76 24.40L231.34 21.71L243.11 21.71L240.62 33.49Q240.23 35.22 239.62 38.03Q239.02 40.85 238.28 44.05Q237.54 47.25 236.84 50.06Q236.14 52.88 235.62 54.54L245.80 45.71Q248.36 43.47 249.42 42.19Q250.47 40.91 250.47 40.02Q250.47 39.18 249.86 38.96Q249.26 38.74 247.66 38.74L248.23 36.05L262.38 36.05L261.80 38.74Q259.62 38.74 257.13 40.30Q254.63 41.87 251.50 44.69L245.67 50.06L251.50 62.74Q252.58 65.10 254.06 66.61Q255.53 68.11 258.02 68.11L257.45 70.80L257 70.80ZM275.11 70.99Q270.44 70.99 267.27 69.74Q264.10 68.50 262.50 66.42Q260.90 64.34 260.90 61.84Q260.90 59.41 262.44 58.19Q263.98 56.98 265.83 56.98Q265.83 59.92 266.89 62.38Q267.94 64.85 270.09 66.35Q272.23 67.86 275.56 67.86Q280.04 67.86 282.66 65.62Q285.29 63.38 285.29 59.60Q285.29 57.68 284.71 56.14Q284.14 54.61 282.41 53.07Q280.68 51.54 277.22 49.55Q273.19 47.25 270.66 44.24Q268.14 41.23 268.14 36.37Q268.14 32.72 269.99 29.94Q271.85 27.15 275.34 25.58Q278.82 24.02 283.69 24.02Q289.26 24.02 292.55 25.94Q295.85 27.86 295.85 30.93Q295.85 32.91 294.50 34.13Q293.16 35.34 290.22 35.34Q290.22 33.62 289.64 31.73Q289.06 29.84 287.56 28.53Q286.06 27.22 283.18 27.22Q280.94 27.22 278.95 28.08Q276.97 28.94 275.72 30.74Q274.47 32.53 274.47 35.28Q274.47 37.65 275.34 39.25Q276.20 40.85 277.99 42.19Q279.78 43.54 282.41 45.07Q287.21 47.82 289.54 50.77Q291.88 53.71 291.88 57.55Q291.88 63.95 287.40 67.47Q282.92 70.99 275.11 70.99ZM305.26 70.99Q302.70 70.99 301.32 69.20Q299.94 67.41 299.94 64.91Q299.94 63.57 300.20 61.71Q300.46 59.86 300.78 58Q301.10 56.14 301.35 54.86L306.60 30.29Q306.79 29.39 306.89 28.56Q306.98 27.73 306.98 27.41Q306.98 25.49 305.67 24.94Q304.36 24.40 302.50 24.40L301.74 24.40L302.31 21.71L314.41 21.71L306.98 56.59Q306.79 57.30 306.57 58.64Q306.34 59.98 306.15 61.39Q305.96 62.80 305.96 63.70Q305.96 66.96 308.07 66.96Q309.10 66.96 310.28 66.48Q311.46 66 312.68 65.30L313.83 67.15Q312.42 68.43 310.06 69.71Q307.69 70.99 305.26 70.99ZM329.06 29.65Q327.46 29.65 326.47 28.78Q325.48 27.92 325.48 26.13Q325.48 24.14 326.54 22.90Q327.59 21.65 329.32 21.65Q330.86 21.65 331.88 22.51Q332.90 23.38 332.90 25.17Q332.90 27.66 331.69 28.66Q330.47 29.65 329.06 29.65M324.65 70.99Q322.09 70.99 320.71 69.20Q319.34 67.41 319.34 64.91Q319.34 63.57 319.59 61.71Q319.85 59.86 320.17 58Q320.49 56.14 320.74 54.86L323.24 43.09Q323.43 42.13 323.43 41.42Q323.43 39.70 322.38 39.22Q321.32 38.74 319.53 38.74L318.70 38.74L319.27 36.05L330.73 36.05L326.38 56.59Q326.25 57.30 325.99 58.64Q325.74 59.98 325.58 61.39Q325.42 62.80 325.42 63.70Q325.42 66.96 327.53 66.96Q328.55 66.96 329.74 66.48Q330.92 66 332.14 65.30L333.29 67.15Q331.88 68.43 329.45 69.71Q327.02 70.99 324.65 70.99ZM382.63 70.99Q379.82 70.99 378.31 69.20Q376.81 67.41 376.81 64.59Q376.81 61.65 378.02 55.95L379.11 50.96Q379.30 50.13 379.62 48.75Q379.94 47.38 380.20 45.94Q380.46 44.50 380.46 43.34Q380.46 42.06 379.91 40.82Q379.37 39.57 377.51 39.57Q375.66 39.57 373.83 40.82Q372.01 42.06 370.41 44.05Q368.81 46.03 367.62 48.30Q366.44 50.58 365.80 52.56L364.78 57.17Q364.58 58.06 364.26 59.92Q363.94 61.78 363.66 63.92Q363.37 66.06 363.14 67.86Q362.92 69.65 362.92 70.35L356.84 70.35Q356.84 69.58 357.06 67.82Q357.29 66.06 357.61 63.86Q357.93 61.65 358.31 59.54Q358.70 57.42 359.02 55.95L360.10 50.96Q360.30 50.13 360.62 48.75Q360.94 47.38 361.19 45.94Q361.45 44.50 361.45 43.34Q361.45 42.06 360.90 40.82Q360.36 39.57 358.50 39.57Q356.46 39.57 354.50 41.04Q352.55 42.51 350.86 44.82Q349.16 47.12 347.98 49.58Q346.79 52.05 346.41 53.97L342.95 70.35L337.00 70.35L342.38 44.62Q342.57 43.73 342.66 42.90Q342.76 42.06 342.76 41.74Q342.76 39.82 341.42 39.28Q340.07 38.74 338.28 38.74L337.77 38.74L338.34 36.05L350.18 36.05L348.46 44.11L349.10 44.11Q351.72 39.89 354.44 37.68Q357.16 35.47 360.74 35.47Q364.52 35.47 366.06 37.62Q367.59 39.76 367.59 42.58Q367.59 42.96 367.56 43.34Q367.53 43.73 367.46 44.11L368.10 44.11Q370.66 39.89 373.42 37.68Q376.17 35.47 379.75 35.47Q383.53 35.47 385.06 37.62Q386.60 39.76 386.60 42.58Q386.60 44.18 386.18 46.06Q385.77 47.95 385.45 49.62L383.78 57.17Q383.40 58.96 383.18 60.69Q382.95 62.42 382.95 63.89Q382.95 66.96 385.19 66.96Q387.05 66.96 389.29 65.49L390.44 67.34Q388.90 68.62 387.02 69.81Q385.13 70.99 382.63 70.99ZM439.98 70.99Q437.16 70.99 435.66 69.20Q434.15 67.41 434.15 64.59Q434.15 61.65 435.37 55.95L436.46 50.96Q436.65 50.13 436.97 48.75Q437.29 47.38 437.54 45.94Q437.80 44.50 437.80 43.34Q437.80 42.06 437.26 40.82Q436.71 39.57 434.86 39.57Q433.00 39.57 431.18 40.82Q429.35 42.06 427.75 44.05Q426.15 46.03 424.97 48.30Q423.78 50.58 423.14 52.56L422.12 57.17Q421.93 58.06 421.61 59.92Q421.29 61.78 421.00 63.92Q420.71 66.06 420.49 67.86Q420.26 69.65 420.26 70.35L414.18 70.35Q414.18 69.58 414.41 67.82Q414.63 66.06 414.95 63.86Q415.27 61.65 415.66 59.54Q416.04 57.42 416.36 55.95L417.45 50.96Q417.64 50.13 417.96 48.75Q418.28 47.38 418.54 45.94Q418.79 44.50 418.79 43.34Q418.79 42.06 418.25 40.82Q417.70 39.57 415.85 39.57Q413.80 39.57 411.85 41.04Q409.90 42.51 408.20 44.82Q406.50 47.12 405.32 49.58Q404.14 52.05 403.75 53.97L400.30 70.35L394.34 70.35L399.72 44.62Q399.91 43.73 400.01 42.90Q400.10 42.06 400.10 41.74Q400.10 39.82 398.76 39.28Q397.42 38.74 395.62 38.74L395.11 38.74L395.69 36.05L407.53 36.05L405.80 44.11L406.44 44.11Q409.06 39.89 411.78 37.68Q414.50 35.47 418.09 35.47Q421.86 35.47 423.40 37.62Q424.94 39.76 424.94 42.58Q424.94 42.96 424.90 43.34Q424.87 43.73 424.81 44.11L425.45 44.11Q428.01 39.89 430.76 37.68Q433.51 35.47 437.10 35.47Q440.87 35.47 442.41 37.62Q443.94 39.76 443.94 42.58Q443.94 44.18 443.53 46.06Q443.11 47.95 442.79 49.62L441.13 57.17Q440.74 58.96 440.52 60.69Q440.30 62.42 440.30 63.89Q440.30 66.96 442.54 66.96Q444.39 66.96 446.63 65.49L447.78 67.34Q446.25 68.62 444.36 69.81Q442.47 70.99 439.98 70.99ZM463.21 29.65Q461.61 29.65 460.62 28.78Q459.62 27.92 459.62 26.13Q459.62 24.14 460.68 22.90Q461.74 21.65 463.46 21.65Q465.00 21.65 466.02 22.51Q467.05 23.38 467.05 25.17Q467.05 27.66 465.83 28.66Q464.62 29.65 463.21 29.65M458.79 70.99Q456.23 70.99 454.86 69.20Q453.48 67.41 453.48 64.91Q453.48 63.57 453.74 61.71Q453.99 59.86 454.31 58Q454.63 56.14 454.89 54.86L457.38 43.09Q457.58 42.13 457.58 41.42Q457.58 39.70 456.52 39.22Q455.46 38.74 453.67 38.74L452.84 38.74L453.42 36.05L464.87 36.05L460.52 56.59Q460.39 57.30 460.14 58.64Q459.88 59.98 459.72 61.39Q459.56 62.80 459.56 63.70Q459.56 66.96 461.67 66.96Q462.70 66.96 463.88 66.48Q465.06 66 466.28 65.30L467.43 67.15Q466.02 68.43 463.59 69.71Q461.16 70.99 458.79 70.99ZM497.77 70.99Q494.95 70.99 493.45 69.20Q491.94 67.41 491.94 64.59Q491.94 61.65 493.16 55.95L494.25 50.96Q494.44 50.13 494.76 48.75Q495.08 47.38 495.34 45.94Q495.59 44.50 495.59 43.34Q495.59 42.06 495.05 40.82Q494.50 39.57 492.65 39.57Q490.60 39.57 488.65 41.04Q486.70 42.51 485.00 44.82Q483.30 47.12 482.12 49.58Q480.94 52.05 480.55 53.97L477.10 70.35L471.14 70.35L476.52 44.62Q476.71 43.73 476.81 42.90Q476.90 42.06 476.90 41.74Q476.90 39.82 475.56 39.28Q474.22 38.74 472.42 38.74L471.91 38.74L472.49 36.05L484.33 36.05L482.60 44.11L483.24 44.11Q485.86 39.89 488.58 37.68Q491.30 35.47 494.89 35.47Q498.66 35.47 500.20 37.62Q501.74 39.76 501.74 42.58Q501.74 44.18 501.32 46.06Q500.90 47.95 500.58 49.62L498.92 57.17Q498.54 58.96 498.31 60.69Q498.09 62.42 498.09 63.89Q498.09 66.96 500.33 66.96Q502.18 66.96 504.42 65.49L505.58 67.34Q504.04 68.62 502.15 69.81Q500.26 70.99 497.77 70.99ZM518.38 85.71Q511.40 85.71 507.91 83.57Q504.42 81.42 504.42 77.39Q504.42 74.70 505.93 72.85Q507.43 70.99 509.80 69.84Q512.17 68.69 514.86 68.18Q513.58 67.60 512.68 66.45Q511.78 65.30 511.78 63.76Q511.78 61.78 513.13 60.37Q514.47 58.96 517.86 57.23Q515.75 56.27 514.57 54.35Q513.38 52.43 513.38 49.68Q513.38 47.44 514.28 44.94Q515.18 42.45 517.00 40.27Q518.82 38.10 521.64 36.75Q524.46 35.41 528.23 35.41Q530.15 35.41 531.85 35.92Q533.54 36.43 534.82 37.46Q536.10 35.60 537.83 34.26Q539.56 32.91 541.74 32.91Q543.34 32.91 544.14 33.74Q544.94 34.58 544.94 35.86Q544.94 37.26 544.14 38.54Q543.34 39.82 541.16 39.82Q541.16 38.86 540.71 38.19Q540.26 37.52 539.37 37.52Q538.47 37.52 537.67 38Q536.87 38.48 536.23 38.99Q537.64 40.98 537.64 43.92Q537.64 46.10 536.78 48.56Q535.91 51.02 534.12 53.23Q532.33 55.44 529.54 56.85Q526.76 58.26 522.98 58.26Q522.47 58.26 521.93 58.22Q521.38 58.19 520.94 58.13Q519.46 58.77 517.93 59.73Q516.39 60.69 516.39 62.16Q516.39 63.18 517.32 63.57Q518.25 63.95 519.66 64.08L525.80 64.72Q530.54 65.23 533.13 67.25Q535.72 69.26 535.72 73.10Q535.72 78.86 531.37 82.29Q527.02 85.71 518.38 85.71M523.69 55.18Q525.86 55.18 527.40 54Q528.94 52.82 529.93 50.99Q530.92 49.17 531.37 47.18Q531.82 45.20 531.82 43.60Q531.82 40.85 530.63 39.60Q529.45 38.35 527.40 38.35Q525.22 38.35 523.69 39.54Q522.15 40.72 521.16 42.54Q520.17 44.37 519.72 46.35Q519.27 48.34 519.27 49.94Q519.27 52.69 520.46 53.94Q521.64 55.18 523.69 55.18M518.63 82.58Q522.79 82.58 525.35 81.52Q527.91 80.46 529.03 78.70Q530.15 76.94 530.15 74.90Q530.15 72.85 528.74 71.66Q527.34 70.48 524.20 70.16L517.99 69.58Q515.82 69.84 513.90 70.70Q511.98 71.57 510.79 73.14Q509.61 74.70 509.61 77.01Q509.61 79.44 511.56 81.01Q513.51 82.58 518.63 82.58Z"></path></svg>